<svg width="900" height="900" viewBox="0 0 900 900" fill="none" xmlns="http://www.w3.org/2000/svg">
<g clip-path="url(#clip0_68_15)">
<circle cx="450" cy="450" r="450" fill="white"/>
<path fill-rule="evenodd" clip-rule="evenodd" d="M406.828 30.0594C417.457 30.3815 420.893 30.9183 426.154 32.9583C431.952 35.3203 433.884 35.535 445.48 35.2129C454.713 34.9982 460.296 35.4277 465.128 36.6087C468.778 37.575 474.039 39.5076 476.83 40.9033C479.729 42.2991 484.668 46.0569 487.889 49.3852C492.076 53.5725 494.868 55.6124 497.552 56.1492C499.592 56.4713 504.423 58.1892 508.288 60.0144C513.013 62.1617 517.415 65.3827 521.709 69.7846C525.36 73.4351 529.332 78.9107 530.728 81.8096C532.124 84.8158 533.734 89.5399 534.486 92.3314C535.559 97.1629 536.096 97.807 542.001 100.921C545.544 102.853 550.268 106.504 552.523 109.188C554.885 111.872 557.677 115.952 558.75 118.314C559.931 120.676 561.434 125.293 562.079 128.514C563.152 133.345 563.045 135.278 561.757 139.25C560.468 143.33 560.361 144.511 561.542 146.766C562.293 148.269 564.011 152.563 565.407 156.429C567.125 161.582 567.769 165.769 567.662 172.533C567.662 179.083 566.91 183.485 565.3 188.101C564.011 191.645 560.898 197.442 558.321 200.985C555.744 204.528 552.094 208.716 550.054 210.219C548.014 211.829 545.115 214.299 543.397 215.909C541.679 217.627 540.498 219.882 540.498 221.707C540.498 223.317 538.566 227.505 531.909 237.49V259.285C531.909 278.396 531.694 281.509 529.869 285.053C528.795 287.2 525.896 292.139 518.918 302.983L519.025 334.119C519.025 351.19 518.488 369.657 517.951 374.917C517.307 380.178 515.804 387.909 514.623 392.096C513.335 396.283 511.402 401.437 510.328 403.691C509.255 405.839 504.96 411.207 493.365 423.232L493.257 446.852L505.819 446.96C515.482 447.067 521.172 447.819 529.762 449.966C535.989 451.469 544.149 453.938 548.014 455.549C551.879 457.052 557.677 459.736 560.898 461.347C564.119 462.957 571.849 467.681 578.076 471.869C584.303 476.056 591.175 480.995 597.295 486.578L591.389 502.682C588.168 511.594 580.868 531.349 575.177 546.702C565.407 572.792 564.441 575.047 558.858 581.703C555.529 585.676 548.765 595.554 543.719 603.606C538.673 611.658 526.326 630.77 516.341 645.908C500.88 669.206 496.478 675.004 487.352 684.13C481.447 690.035 475.005 697.551 473.18 700.772C471.247 703.993 468.456 709.576 467.06 713.119C465.557 716.662 463.517 722.674 462.443 726.54C461.048 731.8 460.511 737.169 460.618 748.013C460.726 759.501 461.155 764.332 463.088 771.096C464.376 775.82 467.06 783.336 468.993 787.738C470.925 792.14 474.898 799.441 477.797 803.843C480.696 808.245 487.352 816.404 492.72 821.88C500.88 830.362 502.813 831.758 505.067 831.328C506.571 831.006 509.792 830.577 516.878 829.61L512.798 826.604C510.651 824.886 506.893 821.343 504.531 818.767C502.061 816.19 498.626 811.895 496.8 809.211C494.975 806.527 491.432 800.3 489.07 795.253C486.386 789.67 484.024 782.584 482.95 777.001C481.662 770.559 481.34 764.762 481.769 757.139C482.091 751.234 483.38 742.537 484.668 737.813C485.849 733.089 488.641 725.681 490.895 721.279C493.257 716.447 497.659 710.327 501.847 705.818C505.712 701.738 511.617 696.585 521.065 690.572L521.387 683.057C521.602 677.151 522.461 673.93 525.037 668.562C527.292 664.053 530.513 659.758 534.164 656.323C537.385 653.531 541.679 650.095 547.692 646.552L547.155 639.037C546.725 633.346 547.047 630.34 548.443 626.69C549.517 624.005 551.879 619.818 553.811 617.241C555.637 614.665 559.717 610.8 562.938 608.652C566.159 606.505 571.956 603.606 582.908 599.956L585.914 591.581C587.632 586.964 595.684 564.632 604.059 541.871C612.326 519.109 621.881 492.59 625.317 482.82C628.753 473.05 635.731 453.294 640.885 438.8C646.038 424.306 651.192 410.563 652.373 408.201C653.554 405.839 656.56 401.007 659.137 397.464C661.606 393.921 666.223 388.66 669.444 385.869C672.665 382.97 679.107 378.675 683.831 376.421C688.555 374.059 696.285 371.267 701.01 370.086C705.734 368.798 713.893 367.617 719.262 367.187C725.167 366.758 732.253 367.08 737.514 367.831C742.238 368.583 749.968 370.408 754.692 371.911C759.416 373.414 767.576 376.85 772.944 379.534C778.313 382.326 785.506 386.728 789.049 389.304C792.592 391.989 798.283 396.82 801.826 400.041C805.262 403.369 810.093 408.738 812.67 411.959C815.139 415.18 818.682 420.548 820.507 423.769C822.333 426.99 824.695 432.788 825.876 436.653C827.057 440.518 828.345 447.282 828.775 451.684C829.204 456.623 828.989 462.42 828.238 466.715C827.594 470.58 825.661 476.378 824.158 479.599C822.655 482.82 819.326 487.544 816.75 490.121C814.173 492.59 810.093 495.704 807.624 496.885C805.047 498.173 801.074 499.461 794.418 500.535L786.15 525.229C781.534 538.865 775.629 555.936 768.22 576.765L766.503 611.658C765.536 630.877 764.57 648.27 763.711 654.068L767.147 648.7C769.079 645.801 774.34 635.601 778.957 626.153C783.466 616.705 788.083 606.505 789.049 603.606C790.016 600.707 791.519 594.158 792.378 589.112C793.237 584.065 795.277 576.12 797.102 571.396C798.82 566.672 803.436 553.359 814.173 520.935L821.366 516.64C825.339 514.278 831.137 509.446 834.358 505.903C837.579 502.36 841.981 495.596 844.343 490.872C846.597 486.148 849.281 479.169 850.355 475.304C851.536 470.58 852.18 464.138 852.18 455.442C852.288 445.671 851.643 440.196 849.818 432.895C848.53 427.634 845.416 418.83 842.839 413.569C840.263 408.308 835.324 400.041 831.781 395.317C828.238 390.593 821.796 383.399 817.286 379.212C811.167 373.629 808.59 370.301 804.832 360.96L797.531 360.423C791.519 359.886 788.298 358.92 780.997 355.162C775.951 352.585 768.865 349.472 758.558 345.929L776.488 346.358C786.365 346.573 795.706 346.466 800.323 345.392L794.203 328.75L689.414 328.536C631.759 328.321 584.518 327.891 584.625 327.462C584.625 326.925 585.699 323.811 589.349 314.041L688.34 314.149C775.736 314.256 787.439 314.041 787.439 312.645C787.439 311.787 785.936 308.136 780.997 298.151H687.589C636.161 298.151 594.181 297.829 594.181 297.4C594.181 296.863 594.718 293.749 596.865 284.194H685.119C733.756 284.194 773.481 283.872 773.481 283.442C773.481 282.905 771.656 279.577 765.429 269.162H599.012L599.764 265.19C600.193 262.935 600.623 259.822 600.623 255.205H678.463C721.302 255.205 756.303 254.883 756.303 254.453C756.303 253.917 753.941 250.373 745.566 239.1H601.696V225.143H668.263C704.875 225.143 734.83 224.928 734.83 224.606C734.83 224.284 732.253 220.955 723.556 210.111H662.573C609.427 210.111 601.589 209.897 601.16 208.501C600.838 207.642 600.623 204.528 600.623 196.154H710.672L695.104 180.586L598.046 179.512L597.187 175.218C596.758 172.856 596.113 169.849 595.255 166.092L679.536 165.984L675.779 162.763C673.739 160.938 668.693 157.073 656.99 148.806L626.927 148.913C610.393 149.02 595.684 149.128 594.181 149.02C591.926 148.913 591.282 148.161 590.208 143.867C589.564 140.968 588.705 137.854 588.383 136.888C587.739 135.063 589.457 134.956 637.664 134.419L629.612 129.587C625.21 127.01 617.264 122.501 611.896 119.71C602.233 114.556 602.233 114.556 581.834 114.556L578.72 107.899C577.002 104.142 572.708 96.3039 569.165 90.3988C565.622 84.4937 560.79 76.9781 558.213 73.7572C555.744 70.5362 549.732 63.6648 544.9 58.5113C540.176 53.2504 536.526 49.0631 536.848 49.0631C537.17 49.0631 542.431 50.4588 548.658 52.2841C554.778 54.1093 565.3 57.545 571.849 59.907C578.506 62.3764 588.061 66.0269 593.107 68.0668C598.153 70.2141 608.246 74.8308 615.654 78.4813C623.062 82.239 633.155 87.5 638.201 90.3988C643.247 93.1903 654.842 100.491 663.968 106.611C673.095 112.623 685.764 121.642 691.991 126.581C698.325 131.52 709.384 140.753 716.685 147.303C723.878 153.852 735.367 165.125 742.238 172.533C749.002 179.942 758.987 191.537 764.355 198.301C769.724 205.065 777.883 215.909 782.5 222.458C787.117 229.008 794.74 240.711 799.356 248.548C803.973 256.279 810.952 268.84 814.71 276.463C818.467 283.979 823.943 296.111 826.949 303.519C829.848 310.928 834.143 321.986 836.29 328.213C838.437 334.441 842.303 347.647 844.879 357.739C847.456 367.831 850.355 379.856 851.214 384.58C852.18 389.304 853.576 398.216 854.542 404.443C855.401 410.67 856.582 421.729 857.226 429.137C857.763 436.545 858.3 449.537 858.3 458.126C858.3 466.715 857.763 479.492 857.226 486.578C856.582 493.664 855.186 506.226 853.898 514.493C852.717 522.76 850.033 536.825 847.993 545.629C845.953 554.54 842.517 567.531 840.477 574.617C838.33 581.703 834.25 593.836 831.459 601.459C828.56 609.082 824.373 619.711 822.011 625.079C819.648 630.447 815.569 639.251 812.777 644.727C810.093 650.095 804.617 660.08 800.645 666.737C796.78 673.286 789.694 684.56 784.862 691.646C780.138 698.732 771.441 710.542 765.536 717.95C759.524 725.359 748.25 738.135 740.198 746.295C732.253 754.455 719.369 766.587 711.639 773.136C703.908 779.686 692.098 789.026 685.334 793.858C678.57 798.689 667.726 805.883 661.284 809.855C654.842 813.828 641.959 820.807 632.832 825.423C623.706 830.04 610.178 836.16 602.77 839.273C595.362 842.28 583.552 846.574 576.466 848.936C569.379 851.191 558.965 854.305 553.382 855.808C547.799 857.311 535.881 859.995 527.077 861.713C518.166 863.538 503.028 865.685 493.257 866.544C483.487 867.403 469.53 868.477 462.121 868.799C454.713 869.228 440.756 869.014 430.985 868.262C421.215 867.618 407.687 866.437 400.923 865.471C394.159 864.612 382.241 862.679 374.618 861.176C366.995 859.673 356.044 857.203 350.461 855.7C344.878 854.305 335.001 851.298 328.451 849.258C321.902 847.111 311.058 843.353 304.294 840.669C297.53 838.092 284.002 832.08 274.232 827.356C264.461 822.632 252.114 816.297 246.853 813.291C241.593 810.177 232.359 804.594 226.454 800.836C220.549 796.971 211.852 790.959 207.128 787.416C202.404 783.765 194.137 777.216 188.876 772.814C183.615 768.412 172.449 757.998 164.182 749.731C155.807 741.356 144.427 729.009 138.736 722.245C133.046 715.481 124.457 704.315 119.625 697.551C114.794 690.787 106.956 678.655 102.125 670.709C97.4006 662.764 89.9924 649.236 85.6978 640.647C81.4031 632.058 74.9612 617.564 71.3108 608.437C67.6604 599.311 62.3994 584.066 59.5006 574.617C56.7091 565.169 53.3807 553.144 52.1997 547.776C50.9113 542.408 48.9788 532.53 47.7977 525.766C46.6167 519.002 44.8989 506.655 43.8252 498.388C42.6442 488.295 42 474.982 42 458.126C42 444.276 42.5368 428.063 43.2884 422.158C43.9326 416.253 45.3283 406.59 46.1873 400.685C47.0462 394.78 48.764 385.117 49.945 379.212C51.1261 373.307 53.9176 361.497 56.2796 352.908C58.6417 344.318 61.8626 333.26 63.5805 328.213C65.2983 323.167 68.734 314.041 71.3108 307.814C73.7802 301.587 79.1485 289.562 83.2284 280.973C87.4156 272.383 94.1796 259.607 98.3669 252.521C102.554 245.435 108.889 235.235 112.432 229.974C115.975 224.713 122.309 215.694 126.389 210.111C130.577 204.528 138.307 194.651 143.783 188.101C149.151 181.552 160.317 169.42 168.584 161.153C176.744 152.778 189.306 141.183 196.392 135.385C203.478 129.48 214.107 121.213 220.012 117.025C225.917 112.838 235.902 106.182 242.237 102.316C248.679 98.4512 254.047 95.2303 254.369 95.2303C254.691 95.2303 252.651 98.2365 249.752 101.994C246.961 105.645 242.129 112.731 239.123 117.777C236.117 122.823 230.212 133.882 226.132 142.471C221.945 151.06 216.684 162.978 214.429 169.098C210.779 179.083 210.134 180.049 207.665 180.049C205.84 180.049 202.619 182.196 197.251 187.243C192.956 191.322 189.413 194.865 189.413 195.402C189.413 195.832 193.385 196.261 198.217 196.476C205.518 196.691 207.021 197.013 206.699 198.301C206.591 199.16 206.055 202.059 204.981 209.575L176.314 210.648L173.737 213.869C172.234 215.587 169.658 218.915 164.719 225.143H203.37V239.1L181.575 239.207C169.658 239.315 158.492 239.637 156.666 240.066C154.412 240.496 152.264 242.536 148.936 247.152C146.467 250.696 144.427 253.917 144.319 254.453C144.319 254.883 157.74 255.312 203.907 255.742L204.981 269.162H134.656L126.067 284.194H207.665L208.631 289.347C209.275 292.139 209.92 295.252 210.242 296.326C210.886 298.044 208.202 298.151 119.088 298.151L115.653 305.13C113.72 308.995 112.11 312.538 112.11 313.182C112.11 313.934 129.825 314.256 214.644 314.149L216.898 318.765C218.187 321.342 219.475 324.456 220.549 328.213H105.131L102.769 335.944C101.373 340.238 100.299 344.426 100.299 345.177C100.299 346.144 113.828 346.466 228.601 346.573L232.359 353.015C234.399 356.665 236.224 359.886 236.439 360.208C236.546 360.638 204.766 360.853 94.9312 360.423L93.7502 365.04C93.2134 367.509 92.2471 371.267 91.7102 373.307C91.1734 375.347 90.9587 377.387 91.1734 377.924C91.4955 378.353 126.604 378.568 246.853 378.246L259.2 392.633H87.4156L86.6641 396.713C86.342 398.86 85.9125 402.618 85.8051 409.274L178.676 409.489C261.885 409.704 271.762 409.919 273.158 411.422C274.661 412.925 274.446 413.14 271.011 413.032C268.971 413.032 263.173 413.784 258.127 414.75C253.081 415.716 244.277 418.078 228.064 423.769H155.593C87.3083 423.769 83.121 423.876 83.121 425.701C83.121 426.668 82.6915 430.103 81.5105 438.8L206.699 439.337L178.139 452.221L82.0473 452.757V469.936H117.478C140.347 469.936 152.909 470.365 152.909 471.01C152.909 471.546 152.586 472.083 152.157 472.083C151.62 472.083 148.292 474.66 137.877 483.893H83.121V489.584C83.121 492.59 83.3357 496.241 83.6578 497.636C84.1947 499.998 84.4094 499.998 101.91 499.998C111.68 499.998 119.625 500.106 119.625 500.32C119.625 500.428 116.619 503.756 106.205 515.029H96.327C88.1672 515.029 86.342 515.352 86.342 516.64C86.342 517.499 87.4156 523.189 88.5966 529.309C90.8513 539.831 90.9587 540.153 92.3544 537.362C93.2134 535.644 94.0723 534.463 94.3944 534.677C94.7165 534.785 94.5017 536.18 93.8575 537.898C93.3207 539.509 92.7839 542.622 92.7839 544.877C92.7839 547.024 93.4281 550.997 94.287 553.681C95.0386 556.365 96.1122 558.298 96.6491 558.083C97.1859 557.761 101.481 553.144 106.312 547.883C111.036 542.515 118.23 535.214 122.202 531.671C126.175 528.128 133.583 522.652 138.736 519.539C143.89 516.425 149.795 513.419 151.835 512.882C154.841 512.131 155.915 511.057 157.096 507.836C157.847 505.581 160.746 500.535 163.538 496.67C166.222 492.697 170.946 487.544 173.845 484.967C176.851 482.498 182.112 479.062 185.655 477.344C189.198 475.734 195.425 473.694 199.613 473.05C204.874 472.083 208.953 471.976 219.583 473.694L222.696 468.111C224.521 464.997 228.494 459.844 231.608 456.837C234.828 453.724 240.197 449.644 243.74 447.711C247.176 445.886 254.476 442.987 259.737 441.484C267.682 439.122 272.406 438.478 303.22 437.189L303.328 349.15L298.711 347.325C296.134 346.358 291.517 343.245 288.297 340.346C284.646 337.125 281.425 332.83 279.493 328.75C277.775 325.207 275.949 319.624 275.305 316.403C274.661 313.182 274.232 308.78 274.124 306.74C274.124 303.734 273.051 301.802 268.541 297.077C265.428 293.749 261.455 288.166 259.63 284.73C257.697 281.187 255.657 275.712 255.013 272.705C254.369 269.592 253.832 264.438 253.94 261.432C253.94 258.319 254.584 253.058 256.516 243.932L251.685 238.563C249.001 235.557 245.672 230.726 244.169 227.827C241.915 223.21 241.485 220.955 241.485 212.259C241.485 205.817 242.022 200.663 242.988 198.301C243.847 196.261 246.317 191.859 252.436 182.733L249.43 176.291C246.746 170.816 246.317 168.454 246.317 160.723C246.317 154.281 246.961 149.665 248.464 145.155C249.752 141.612 251.792 136.781 253.188 134.419C254.584 132.057 258.127 127.869 260.918 125.185C263.817 122.501 268.219 119.28 270.796 117.992C275.198 115.737 275.305 115.415 275.949 109.51C276.272 106.074 277.238 100.921 278.204 97.9144C279.063 95.0155 281.64 89.2178 283.787 85.1379C286.471 79.877 290.122 75.475 295.812 70.1067C300.214 65.9195 306.763 60.9807 310.306 59.0481C313.742 57.1155 320.506 54.6461 325.23 53.3577C330.491 52.0693 337.148 51.2104 351.535 51.2104L357.869 46.1642C361.305 43.2654 367.532 39.4002 371.505 37.3603C375.585 35.4277 382.241 32.8509 386.429 31.7772C392.226 30.1668 396.843 29.8447 406.828 30.0594V30.0594ZM578.183 346.466H685.978L677.926 350.009C673.524 351.941 667.297 355.055 658.6 360.423L570.668 359.886L578.183 346.466ZM629.289 377.816C635.409 377.709 640.348 377.924 640.348 378.461C640.241 378.89 638.201 382.218 631.222 392.525L549.087 392.633L559.931 379.212L589.135 378.675C605.132 378.353 623.277 377.924 629.289 377.816V377.816ZM538.888 409.919L580.975 409.811C604.166 409.811 623.17 409.919 623.17 410.133C623.17 410.241 621.989 413.247 618.231 423.232L573.996 423.554C549.624 423.661 529.762 423.447 529.762 423.017C529.762 422.48 531.802 419.367 534.378 416.038L538.888 409.919ZM574.318 438.8H593.859C604.703 438.8 613.507 438.907 613.507 439.122C613.507 439.229 612.862 441.055 612.111 443.095C611.252 445.135 609.749 449.214 607.065 457.052L602.448 454.475C599.979 453.08 592.57 449 586.128 445.349L574.318 438.8Z" fill="#29242E"/>
<path fill-rule="evenodd" clip-rule="evenodd" d="M417.565 44.4465C420.571 44.7686 425.402 46.0569 428.301 47.238C431.307 48.419 435.173 50.4589 437.105 51.64C440.326 53.6799 440.97 53.7873 446.231 52.4989C449.345 51.7473 454.82 51.3179 458.363 51.5326C462.014 51.7473 466.845 53.0357 469.422 54.3241C471.892 55.5051 475.112 58.1892 476.508 60.1218C477.904 61.947 479.3 64.5238 479.729 65.7048C480.159 67.3153 482.091 68.2816 488.104 69.57C492.398 70.5363 498.411 72.4689 501.31 73.8646C504.209 75.2604 508.503 78.374 510.758 80.736C513.013 83.0981 515.804 86.9632 516.985 89.3253C518.059 91.6873 519.777 98.0219 520.635 103.283C521.494 108.544 523.105 114.664 524.179 116.703C525.36 118.743 528.044 121.964 530.406 123.79C532.768 125.615 537.385 127.762 540.82 128.621C544.149 129.48 546.94 130.339 546.94 130.661C546.94 130.983 545.866 132.916 544.471 134.956C542.968 137.103 539.747 139.787 536.633 141.29C532.446 143.33 530.406 143.76 526.541 143.115C523.856 142.793 519.777 141.075 517.414 139.465C515.052 137.854 512.046 134.741 510.65 132.701C509.255 130.768 507.429 126.688 506.571 123.682C505.712 120.783 505.067 114.234 505.067 109.188C505.067 103.39 504.423 98.1292 503.242 94.6935C501.954 90.8284 499.592 87.5 494.975 82.8833C490.358 78.2666 486.601 75.5825 481.984 73.7572C477.045 71.8247 472.75 71.1805 451.922 70.3216L455.142 73.6499C456.86 75.5825 463.41 79.6624 469.637 82.776C476.83 86.5337 482.199 90.0768 484.561 92.6536C486.601 95.0156 489.499 99.525 490.895 102.746C492.828 106.933 493.579 110.584 493.579 115.093C493.579 119.71 492.828 123.038 491.003 126.796C489.607 129.695 488.104 132.164 487.567 132.379C487.137 132.594 486.815 130.232 486.923 127.225C486.923 124.112 486.386 120.139 485.742 118.314C485.097 116.596 483.272 113.268 481.662 111.013C480.051 108.651 476.616 105.43 473.931 103.712C470.925 101.887 465.342 99.8471 459.115 98.4513C453.747 97.2703 448.164 95.7672 446.768 95.123C445.48 94.4788 440.326 89.6473 435.28 84.4938C427.12 76.0119 425.51 74.8309 419.712 73.2204C415.203 71.932 411.659 71.6099 407.902 72.1468C404.895 72.5762 400.816 73.7572 398.776 74.9383C396.736 76.0119 393.837 77.8371 389.65 81.0581L397.165 80.5213C401.46 80.1992 406.291 80.4139 408.438 81.0581C410.478 81.7023 414.236 83.7422 416.706 85.5675C419.282 87.2853 423.47 92.0094 426.046 96.0893C428.623 100.062 431.844 104.356 433.24 105.645C434.636 106.933 437.642 108.758 439.789 109.617C442.044 110.584 447.412 111.872 451.599 112.516C455.894 113.16 461.155 114.556 463.195 115.63C465.235 116.703 468.026 118.743 469.315 120.139C470.603 121.428 472.106 123.897 472.75 125.615C473.395 127.225 473.931 130.446 473.931 132.808C473.931 135.17 472.965 139.035 471.784 141.398C470.603 143.76 469.1 145.907 468.563 146.229C468.026 146.551 467.275 145.37 466.953 143.545C466.631 141.612 465.02 139.25 462.873 137.64C460.618 135.922 455.572 134.204 448.164 132.594C441.937 131.198 435.602 129.265 433.884 128.192C432.274 127.225 429.16 123.36 426.905 119.817C424.758 116.167 421.215 111.228 419.175 108.866C417.135 106.504 413.163 103.497 410.264 102.102C407.472 100.706 403.392 99.2029 401.138 98.8808C398.99 98.4513 393.085 98.7734 388.039 99.525C382.134 100.491 377.947 100.599 376.229 99.9544C374.833 99.4176 372.578 97.0556 371.183 94.6935C369.357 91.4726 368.713 88.6811 368.713 83.7422C368.713 79.6624 369.572 74.7235 370.753 71.3952C371.934 68.2816 374.94 63.3428 377.517 60.4439C380.094 57.5451 384.067 53.8946 386.429 52.2841C388.791 50.6737 392.87 48.5264 395.555 47.5601C398.239 46.5938 403.07 45.3054 406.291 44.8759C409.512 44.3391 414.558 44.2317 417.565 44.4465V44.4465ZM346.918 66.5638C352.286 66.6711 357.01 66.9932 357.333 67.3153C357.655 67.6374 357.118 71.0731 354.219 82.3465H348.529C345.522 82.3465 340.369 83.3128 337.255 84.3864C334.142 85.5675 329.095 88.7884 325.874 91.6873C322.761 94.4788 318.896 98.9881 317.285 101.672C315.782 104.356 313.957 108.651 313.313 111.335C312.239 115.845 311.702 116.381 305.26 119.602C301.502 121.428 298.067 123.038 297.53 123.038C297.1 123.145 296.778 119.495 296.778 115.093C296.778 109.939 297.53 104.786 298.926 100.599C300.107 97.0556 302.361 92.1168 303.972 89.6473C305.582 87.0706 309.233 82.6686 312.239 79.7697C315.245 76.8708 320.077 73.3278 323.083 71.8247C325.982 70.3216 330.384 68.4963 332.746 67.6374C335.323 66.7785 340.906 66.349 346.918 66.5638ZM353.682 86.6411C354.219 86.6411 355.185 90.1842 355.829 94.4788C356.581 99.8471 357.869 103.712 360.017 107.041C361.949 110.047 365.17 112.946 368.391 114.771C373.008 117.455 374.618 117.67 384.281 117.777C392.656 117.777 395.877 118.207 398.776 119.817C400.816 120.891 403.607 123.682 404.895 125.937C406.399 128.406 407.365 131.949 407.365 134.741C407.365 137.21 406.399 141.183 405.218 143.545C404.037 145.907 401.46 149.02 399.527 150.524C397.702 151.919 395.769 153.208 395.233 153.208C394.803 153.208 394.481 150.631 394.588 147.625C394.588 143.652 394.052 141.183 392.656 139.25C391.475 137.747 388.898 135.707 386.858 134.634C383.637 133.023 381.382 132.808 368.176 133.452C353.575 134.097 353.038 133.989 349.495 131.627C347.455 130.232 344.771 127.655 343.59 126.044C341.657 123.467 341.335 121.428 341.335 113.697C341.335 106.289 341.872 103.498 343.697 100.062C344.985 97.6998 347.455 93.7272 349.28 91.2578C351.105 88.6811 353.038 86.6411 353.682 86.6411ZM327.055 129.05L328.988 134.419C330.169 137.532 332.746 141.398 335.108 143.652C338.329 146.658 340.906 147.839 347.24 149.343C351.642 150.416 356.581 151.919 358.191 152.778C359.909 153.637 362.164 155.57 363.452 157.288C364.633 158.898 366.029 162.012 366.673 164.266C367.317 166.843 367.21 169.742 366.566 172.534C365.922 174.896 363.989 178.546 362.271 180.586C360.553 182.626 358.406 184.344 357.655 184.344C356.796 184.344 356.474 182.733 356.581 179.298C356.688 176.506 356.044 172.748 355.185 170.923C354.326 169.205 352.179 166.843 350.461 165.877C348.636 164.803 343.375 163.515 338.651 162.871C333.927 162.226 329.095 161.368 327.914 160.723C326.733 160.079 324.801 158.039 323.62 156.214C322.117 153.745 321.472 150.846 321.472 146.766C321.472 142.686 322.331 139.035 324.264 134.956L327.055 129.05ZM312.346 134.956C312.454 134.956 311.165 138.177 309.34 142.256C306.656 148.162 306.119 150.953 306.012 158.039C305.904 164.911 306.334 167.38 308.159 170.386C309.34 172.426 311.81 175.11 313.527 176.291C315.245 177.472 319.54 179.19 323.083 179.942C327.378 180.944 330.706 182.554 333.068 184.773C335 186.598 337.148 189.819 337.792 191.859C338.436 193.899 338.651 197.764 338.436 200.449C338.114 203.133 336.826 207.427 335.645 210.111C333.819 214.191 333.497 214.513 333.39 212.259C333.283 210.756 332.316 207.535 331.135 205.065C329.632 201.844 327.592 199.59 324.479 197.872C321.902 196.476 317.715 194.651 315.03 194.007C312.346 193.255 308.481 191.859 306.441 190.786C304.401 189.819 301.18 187.135 299.248 184.988C297.315 182.841 294.953 178.546 294.094 175.54C293.235 172.426 292.484 167.917 292.484 165.555C292.484 163.193 293.021 159.542 293.557 157.502C294.094 155.462 296.027 151.49 297.852 148.698C299.677 145.8 303.542 141.612 306.549 139.25C309.555 136.888 312.132 134.956 312.346 134.956V134.956ZM270.474 148.913C270.689 148.913 270.581 152.456 270.259 156.751C269.937 160.938 270.152 166.199 270.796 168.239C271.333 170.279 272.299 172.963 272.836 174.037C273.695 176.077 273.587 176.077 271.225 174.573C269.937 173.822 267.897 171.138 266.716 168.776C265.535 166.414 264.569 163.515 264.569 162.334C264.569 161.153 265.857 157.61 267.36 154.603C268.863 151.49 270.259 148.913 270.474 148.913ZM443.01 153.422L445.05 155.999C446.231 157.395 449.667 159.757 452.78 161.26C455.894 162.763 460.511 164.266 463.195 164.588C465.879 165.018 470.496 164.696 473.395 164.052C476.401 163.407 482.091 160.938 486.064 158.576C490.036 156.214 493.472 154.389 493.579 154.603C493.794 154.711 495.834 157.18 498.196 160.079C500.451 162.871 506.248 168.132 510.973 171.782C515.697 175.325 520.313 179.298 521.172 180.479C522.031 181.66 523.642 184.881 524.823 187.565C526.111 190.893 526.97 196.691 527.507 206.139C527.829 213.655 527.829 219.774 527.4 219.774C526.97 219.774 524.501 218.271 522.031 216.446C519.454 214.728 514.73 212.474 511.509 211.507C508.288 210.648 501.739 209.897 497.015 209.897C492.291 209.897 486.923 210.111 481.447 211.185V253.595C481.447 286.77 481.125 296.004 480.159 296.004C479.407 296.004 475.005 295.145 462.121 292.246V211.185L458.149 209.467C455.894 208.608 450.418 206.783 446.016 205.495C439.36 203.562 435.387 203.133 422.396 203.24C410.371 203.347 405.003 203.777 398.776 205.495C394.374 206.676 388.254 208.93 385.14 210.541C382.027 212.044 379.128 213.118 378.698 212.796C378.269 212.474 380.631 206.676 384.067 199.912C389.005 189.819 391.689 186.062 398.024 179.62C405.218 172.211 407.043 171.03 424.436 162.549L443.01 153.422ZM549.302 155.57L551.235 160.509C552.308 163.3 553.275 167.917 553.275 170.923C553.382 174.573 552.523 178.009 550.805 181.66C549.302 184.558 546.403 188.316 544.363 189.927C542.216 191.537 540.176 192.826 539.854 192.611C539.639 192.504 540.391 188.746 541.679 184.344C543.504 178.117 543.934 174.573 543.397 168.776C542.86 161.475 542.968 161.153 546.081 158.361L549.302 155.57ZM267.145 199.375C267.36 199.375 267.038 200.663 266.501 202.059C266.072 203.562 265.642 207.857 265.535 211.507C265.535 216.661 266.179 219.56 268.541 224.391C270.152 227.719 271.118 230.511 270.689 230.511C270.259 230.511 267.897 228.793 265.535 226.538C263.173 224.284 260.596 220.848 259.952 218.701C259.093 216.017 259.2 213.762 260.059 210.434C260.704 207.964 262.529 204.421 264.032 202.596C265.642 200.878 267.038 199.375 267.145 199.375ZM297.208 206.354L297.852 211.185C298.174 213.869 299.14 217.198 299.999 218.486C300.858 219.882 304.401 222.781 307.837 224.928C311.273 227.183 314.923 230.404 316.104 232.121C317.178 233.947 318.574 237.49 319.218 239.959C319.862 242.428 319.969 244.576 319.54 244.576C319.11 244.576 317.822 243.61 316.641 242.321C315.46 241.14 311.273 238.993 307.515 237.49C303.65 236.094 299.14 233.947 297.53 232.766C295.919 231.585 294.094 228.793 293.45 226.538C292.698 224.176 292.591 220.741 293.021 218.164C293.45 215.802 294.524 212.259 295.49 210.111L297.208 206.354ZM368.499 236.416L373.652 241.355C376.551 244.039 381.597 248.011 384.818 250.051C388.039 252.091 392.87 254.668 395.555 255.634C398.239 256.601 400.493 257.245 400.708 256.923C400.816 256.601 400.279 255.205 399.42 253.917C398.561 252.628 397.595 250.374 396.628 246.616L401.782 248.978C404.573 250.159 409.297 251.447 412.196 251.769C415.525 252.091 419.819 251.662 423.47 250.588C426.691 249.622 432.274 247.153 435.817 245.113C439.36 242.965 442.366 241.247 442.581 241.247C442.688 241.247 442.795 250.266 442.795 261.11C442.795 280.329 442.688 281.08 440.433 282.905C439.145 283.979 435.28 287.415 431.844 290.636C428.408 293.964 425.617 297.078 425.617 297.614C425.617 298.259 429.482 302.553 442.795 315.867L435.495 319.624C431.522 321.772 426.476 324.885 424.329 326.603C422.074 328.428 418.638 332.293 416.598 335.192C413.163 340.024 412.626 340.346 411.982 338.413C411.445 337.232 411.123 332.616 411.123 328.214C411.123 321.127 411.552 319.087 418.638 304.808L415.632 307.707C413.914 309.21 411.015 312.968 409.083 315.867C407.15 318.873 404.251 324.563 402.641 328.536C400.708 333.582 399.849 337.769 399.849 342.493C399.849 347.754 400.493 350.438 402.748 355.055C404.466 358.276 407.365 362.141 412.84 366.328L414.666 363.644C415.632 362.248 418.316 359.135 420.786 356.987C423.148 354.733 429.16 350.868 434.206 348.398C441.507 344.855 445.157 343.782 452.458 342.923C457.505 342.386 465.235 342.278 469.637 342.601C476.83 343.245 477.797 343.674 479.085 346.036C479.729 347.432 483.38 351.19 487.137 354.196C490.788 357.202 495.082 361.497 496.586 363.537C498.196 365.684 500.021 369.335 500.665 371.697C501.31 374.059 501.846 377.816 501.846 380.071C501.846 382.326 500.88 386.62 499.699 389.734C498.626 392.848 495.941 397.25 490.036 403.906L492.398 398.538C493.579 395.639 494.868 390.056 495.082 386.191C495.512 380.178 495.297 379.534 494.116 381.574C493.365 382.863 488.855 387.479 484.131 391.881C478.011 397.464 474.361 401.974 471.569 407.235C469.315 411.422 467.597 413.784 467.597 412.495C467.49 411.314 468.026 407.02 468.671 402.833C469.207 398.753 470.925 392.74 472.428 389.412C473.931 386.191 475.971 382.648 476.938 381.682C477.904 380.608 478.333 379.749 477.689 379.749C477.152 379.749 474.254 381.359 471.355 383.292C468.456 385.225 465.879 387.372 465.772 388.123C465.557 388.875 464.054 387.694 462.551 385.439C460.94 383.185 458.471 380.286 456.86 378.997C455.357 377.602 451.707 375.347 448.701 373.951C445.802 372.448 441.937 370.945 440.111 370.516C437.105 369.764 437.212 369.979 442.259 374.595C445.265 377.28 449.023 382.326 450.848 385.869C453.639 391.452 454.069 393.17 454.069 401.759C454.069 410.026 453.639 412.281 448.701 422.051L447.842 413.999C447.412 409.704 446.016 403.906 444.835 401.222C443.654 398.645 440.863 394.243 438.716 391.667C436.568 388.982 431.629 384.903 427.764 382.433C423.899 379.964 417.565 376.421 413.592 374.595C409.512 372.663 406.291 371.589 406.291 372.019C406.291 372.448 409.19 375.669 412.626 379.212C415.954 382.755 420.034 387.909 421.537 390.486C423.04 393.17 424.865 398.001 425.617 401.222C426.369 404.55 426.691 409.275 426.261 411.744C425.939 414.213 425.188 416.575 424.543 416.79C424.006 417.112 423.255 416.039 423.04 414.428C422.718 412.818 421 409.167 419.282 406.376C417.457 403.584 412.196 398.323 407.687 394.78C403.07 391.13 397.702 386.191 395.662 383.722C393.729 381.252 390.938 376.85 389.65 373.844C388.254 370.945 386.321 364.396 385.355 359.35C384.067 353.122 383.637 347.969 384.067 342.708C384.496 338.628 386.106 330.898 387.717 325.529C389.22 320.268 390.831 313.504 391.045 310.498C391.367 307.385 390.723 302.553 389.65 298.688C388.683 295.145 384.818 286.448 381.06 279.362C377.302 272.276 373.33 263.365 372.149 259.5C370.968 255.742 369.68 248.978 369.25 244.468L368.499 236.416ZM516.663 253.917C516.985 254.99 516.985 261.11 516.663 267.552C516.341 276.785 515.697 280.543 513.764 284.731C512.476 287.737 508.718 293.964 499.484 307.277L501.954 315.33C503.457 320.483 504.423 326.281 504.423 331.435C504.531 335.944 503.886 341.42 501.632 348.076L499.699 341.634C498.626 338.091 496.156 333.045 494.116 330.361C492.184 327.784 488.641 324.134 486.278 322.308C483.916 320.483 481.34 318.765 480.373 318.336C479.192 317.906 481.018 315.544 495.512 300.835L495.405 253.058L498.411 255.312C500.021 256.493 502.813 257.46 504.531 257.46C506.356 257.46 509.684 256.171 512.046 254.776C515.804 252.413 516.233 252.306 516.663 253.917V253.917ZM358.514 303.09C360.876 303.412 364.311 304.486 366.029 305.452C367.747 306.526 370.324 309.532 371.719 312.109C373.652 315.759 374.189 318.014 373.759 321.235C373.437 323.597 371.612 328.965 369.68 333.045C366.244 340.238 366.136 341.205 366.136 352.908C366.029 363.644 366.459 366.114 371.397 378.353L367.854 375.562C365.814 374.059 362.808 370.838 361.198 368.476C359.587 366.114 357.547 362.248 356.688 359.886C355.829 357.524 354.756 353.23 354.326 350.223C353.897 347.217 354.112 341.956 354.863 337.876C355.507 334.119 357.333 328.321 358.836 324.993C360.339 321.772 361.198 318.336 360.876 317.262C360.339 315.867 358.943 315.33 355.615 315.33C352.179 315.33 349.924 316.189 346.489 318.551C343.697 320.591 340.906 323.919 339.188 327.14C337.792 330.146 335.967 336.266 334.034 349.15L332.102 344.855C331.028 342.386 330.169 337.984 330.169 334.441C330.169 330.576 331.028 325.851 332.424 322.094C333.712 318.658 336.504 314.041 338.651 311.787C340.691 309.425 343.804 306.848 345.522 305.989C347.133 305.023 349.817 303.949 351.427 303.412C352.931 302.983 356.151 302.875 358.514 303.09V303.09ZM727.314 386.298C730.642 386.298 737.084 386.942 741.808 387.801C746.533 388.66 753.619 390.7 757.376 392.203C761.242 393.707 767.576 396.82 771.334 399.075C775.199 401.437 780.997 405.409 784.218 407.986C787.546 410.563 792.378 415.287 795.169 418.508C797.961 421.729 802.148 427.956 804.51 432.358C806.872 436.867 809.341 442.665 810.093 445.242C810.737 447.926 811.274 453.294 811.274 457.052C811.381 461.132 810.63 465.856 809.556 468.326C808.59 470.688 806.657 473.801 805.369 475.197C804.08 476.593 801.718 478.418 800.108 479.169C798.497 480.028 794.203 480.673 790.66 480.673C787.117 480.673 783.574 480.458 782.607 480.136C781.426 479.814 782.071 478.74 784.969 476.163C787.117 474.231 790.123 470.258 791.626 467.252C793.773 463.065 794.31 460.273 794.418 454.368C794.418 448.141 793.881 445.671 790.874 439.337C788.19 433.754 785.184 429.781 779.064 423.769C772.837 417.649 768.435 414.428 761.134 410.778C754.692 407.449 748.895 405.409 743.419 404.55C739.017 403.799 732.038 403.369 727.851 403.691C723.449 403.906 718.188 405.087 714.967 406.483C712.068 407.771 707.774 410.67 705.519 412.818C703.264 415.072 700.473 418.937 699.292 421.407C698.111 424.306 697.252 428.493 697.252 432.68C697.252 438.156 697.896 440.733 700.795 446.316C702.62 450.181 706.915 456.193 710.243 459.736C713.571 463.279 720.121 468.862 724.845 472.083C729.461 475.304 737.621 480.028 742.882 482.498C748.25 484.967 757.376 488.296 763.282 490.013C769.187 491.624 774.448 493.234 774.877 493.556C775.306 493.879 773.803 499.462 771.549 505.903C769.294 512.453 758.987 542.837 748.787 573.544C732.897 621.429 730.106 629.052 729.139 626.69C728.602 625.294 725.811 619.174 723.019 613.269C720.228 607.364 715.611 599.204 712.712 595.017C709.706 590.937 702.942 582.992 697.574 577.302C688.018 567.317 687.911 567.102 689.199 563.881C689.844 562.163 695.749 545.199 713.679 491.946L710.136 489.262C708.096 487.866 703.586 484.216 700.043 481.209C696.5 478.203 691.239 472.835 688.34 469.399C685.549 465.856 681.576 459.629 679.536 455.442C677.496 451.362 675.349 444.813 674.812 440.947C674.168 436.867 674.168 431.392 674.598 427.527C675.134 423.984 676.852 418.186 678.463 414.643C680.073 411.1 682.972 406.268 684.797 403.906C686.73 401.544 690.702 398.108 693.601 396.176C696.5 394.243 701.439 391.667 704.553 390.486C707.666 389.305 712.712 387.909 715.826 387.479C718.94 386.942 724.093 386.406 727.314 386.298V386.298ZM749.324 428.493C752.33 428.708 757.162 430.103 760.061 431.607C763.067 433.11 767.147 435.901 769.079 437.941C771.012 439.874 773.374 442.987 774.233 444.705C775.199 446.53 776.165 450.181 776.38 452.758C776.702 456.515 776.273 458.663 774.34 461.884C772.837 464.568 770.582 466.715 768.113 467.681C766.073 468.433 763.067 468.862 761.456 468.54C759.846 468.111 757.054 466.608 755.229 465.105C753.404 463.601 751.579 460.595 750.827 457.911C749.861 454.475 749.861 452.328 750.72 449.537C751.471 447.497 752.974 444.705 754.155 443.417C755.336 442.128 756.303 440.733 756.303 440.411C756.303 440.196 753.941 439.874 750.935 439.874C748.036 439.874 744.17 440.625 742.345 441.484C740.627 442.45 738.265 444.49 737.084 446.101C736.011 447.711 734.615 450.718 733.219 456.515L730.642 450.61C728.925 446.423 728.388 443.631 728.817 440.947C729.247 438.907 730.857 435.901 732.468 434.291C734.078 432.68 737.299 430.533 739.661 429.674C742.238 428.708 746.21 428.278 749.324 428.493V428.493ZM477.367 442.665C478.011 442.987 478.441 448.248 478.226 467.789L490.358 476.7C497.015 481.532 508.611 490.335 529.869 506.977L526.326 510.628C524.393 512.56 518.918 516.747 514.194 519.968C509.469 523.082 501.739 527.484 497.015 529.631C492.291 531.779 484.561 534.57 479.837 535.966C475.112 537.362 467.167 539.079 462.121 539.831C456.109 540.69 446.983 540.905 434.743 540.475C422.503 540.153 413.27 539.187 406.291 537.684C400.708 536.503 393.729 534.677 385.355 532.101L392.334 528.128C396.199 525.873 402.211 522.116 405.754 519.754C409.297 517.284 417.028 511.057 422.933 505.689C428.838 500.428 438.071 491.087 443.44 484.86C448.808 478.74 456.109 469.829 459.544 465.105C463.088 460.381 468.348 453.294 471.14 449.322C474.039 445.349 476.83 442.343 477.367 442.665V442.665ZM261.455 474.982C262.314 475.626 269.722 481.424 277.989 487.866C286.257 494.308 296.456 502.038 300.536 504.937C304.723 507.943 311.487 512.56 315.567 515.244C319.755 517.928 327.27 522.545 332.209 525.551C337.255 528.558 348.421 534.463 356.903 538.543C365.492 542.73 377.839 547.883 384.281 550.031C390.831 552.178 401.889 555.077 408.975 556.473C416.061 557.761 426.476 559.264 432.059 559.586C437.749 560.016 447.842 559.801 454.606 559.264C461.477 558.62 470.818 557.332 475.542 556.365C480.266 555.399 487.782 553.466 492.184 551.963C496.693 550.568 505.067 547.024 510.973 544.126C516.878 541.227 524.93 536.825 528.688 534.248C532.553 531.671 537.599 528.128 539.961 526.303C542.323 524.585 543.826 523.834 543.29 524.692C542.753 525.659 539.424 529.631 535.774 533.711C532.231 537.791 525.36 544.018 520.635 547.561C515.911 551.104 508.718 555.506 504.531 557.439C500.451 559.372 494.116 561.948 490.573 563.129C487.03 564.418 480.051 566.136 475.005 567.209C470.066 568.175 460.403 569.357 441.185 570.43L473.931 581.274C491.969 587.287 508.611 592.547 510.973 592.977C515.16 593.728 515.16 593.836 512.583 594.802C511.08 595.446 502.92 595.554 492.72 595.124C483.272 594.695 470.281 593.728 463.732 592.87C457.29 592.118 444.728 589.863 435.817 588.038C427.013 586.213 414.236 582.992 407.365 580.952C400.601 578.912 389.22 574.94 382.134 572.255C375.048 569.571 362.808 564.31 354.756 560.445C346.811 556.687 335.43 550.89 329.525 547.561C323.62 544.34 317.178 540.583 311.273 537.147L313.635 540.368C314.816 542.086 323.727 551.104 333.497 560.338C343.16 569.571 357.547 582.562 365.492 589.219C373.545 595.876 389.435 608.33 400.923 617.027C412.518 625.616 431.844 639.251 443.869 647.411C456.001 655.571 466.094 662.55 466.201 662.979C466.416 663.409 464.483 665.449 461.907 667.596C459.437 669.743 452.673 674.682 446.875 678.655C441.078 682.52 436.031 685.848 435.602 685.848C435.173 685.848 430.663 682.305 425.617 678.01C420.678 673.608 408.653 662.335 398.883 652.994C389.22 643.546 374.94 629.052 367.21 620.785C359.48 612.517 348.314 599.956 342.409 592.87C336.504 585.783 327.055 574.188 321.58 567.102C315.997 560.016 304.079 543.374 295.168 530.061C286.149 516.855 276.486 502.038 273.587 497.314C270.581 492.59 266.287 485.397 264.032 481.209C261.777 477.13 260.596 474.231 261.455 474.982V474.982ZM194.459 491.946C195.318 493.127 204.444 507.084 214.536 522.867C224.629 538.65 238.049 558.942 244.169 567.961C250.396 576.979 264.676 596.627 276.057 611.658C287.33 626.797 303.22 647.519 311.38 657.826C319.54 668.24 334.142 686.063 344.019 697.551C353.789 709.039 370.002 727.399 380.201 738.35C390.294 749.301 404.788 764.332 412.411 771.633C419.927 779.041 431.522 789.885 437.964 795.683C444.513 801.588 452.351 808.352 455.465 810.714C458.578 813.184 460.726 815.331 460.296 815.438C459.867 815.653 455.142 814.15 449.774 812.11C444.513 810.07 436.998 806.849 433.133 804.916C429.375 802.984 421.859 798.689 416.491 795.468C411.23 792.14 401.352 785.269 394.481 780.222C387.717 775.069 377.839 767.016 372.471 762.4C367.21 757.783 357.655 748.872 351.213 742.644C344.771 736.525 333.39 724.607 325.874 716.34C318.359 708.073 307.193 695.296 301.073 687.781C294.846 680.372 284.539 666.844 278.097 657.718C271.547 648.7 262.636 635.386 258.019 628.3C253.51 621.214 245.35 607.471 239.982 597.701C234.506 588.038 227.098 573.973 223.555 566.565C220.012 559.264 215.181 548.85 212.819 543.481C210.456 538.221 206.913 529.524 204.766 524.156C202.726 518.895 199.183 509.017 196.928 502.146C194.566 495.274 193.493 490.765 194.459 491.946V491.946ZM636.053 559.479C639.919 559.801 645.072 561.626 650.548 564.418C655.272 566.78 662.358 571.074 666.116 573.973C669.981 576.872 677.282 583.529 682.221 588.79C687.267 594.051 693.816 601.888 696.715 606.398C699.721 610.8 704.66 619.174 707.666 625.079C710.78 630.984 715.397 641.399 718.081 648.163C720.657 655.034 724.845 667.811 727.314 676.615C729.676 685.526 731.931 694.974 733.004 702.382L710.565 724.07C698.218 736.095 682.65 750.267 675.779 755.743C669.015 761.219 658.815 769.164 653.017 773.458C647.219 777.86 642.281 781.296 641.959 781.296C641.744 781.296 642.066 779.578 642.71 777.324C643.462 774.747 643.676 768.842 643.247 761.433C642.925 753.918 641.851 746.939 640.348 742.108C639.06 738.028 636.161 730.727 633.799 726.003C631.437 721.279 627.464 714.515 624.887 710.972C622.418 707.429 616.942 701.523 612.862 697.766C608.246 693.471 602.233 689.391 587.417 681.983L574.962 682.09C568.198 682.09 557.247 682.52 539.102 684.13L539.854 679.836C540.283 677.474 541.464 674.36 542.538 672.857C543.612 671.461 546.618 668.777 549.195 666.952C551.879 665.234 556.818 662.765 560.361 661.691C564.763 660.295 570.131 659.651 577.002 659.544C584.84 659.544 589.135 660.08 595.255 662.013C599.764 663.409 606.743 666.2 610.823 668.348C615.01 670.387 621.237 674.145 624.78 676.722C628.323 679.191 633.477 683.593 636.268 686.492C638.952 689.391 643.14 694.33 645.394 697.551C647.756 700.879 651.407 706.355 653.447 709.898C655.594 713.441 661.821 723.963 667.404 733.304C672.88 742.644 677.819 750.267 678.248 750.267C678.677 750.16 678.785 749.086 678.57 747.798C678.248 746.51 677.067 740.068 675.779 733.518C674.598 727.076 671.377 714.944 668.693 706.677C666.008 698.41 661.821 686.6 659.459 680.372C656.99 674.253 652.695 665.771 649.904 661.583C647.112 657.504 642.495 652.35 639.704 650.203C636.805 647.948 631.866 644.942 628.538 643.439C625.317 641.936 619.09 639.896 614.58 638.929C608.675 637.641 603.844 637.319 595.791 637.856C589.886 638.178 580.975 638.929 575.929 639.574C570.99 640.11 566.481 640.218 565.944 639.788C565.514 639.466 565.085 636.997 565.192 634.527C565.192 631.843 566.158 628.73 567.339 626.904C568.52 625.294 571.741 622.717 574.533 621.107C577.432 619.604 582.585 617.456 586.128 616.49C591.282 614.987 595.147 614.772 604.917 615.202C612.755 615.631 620.163 616.705 624.78 618.1C628.967 619.281 634.98 621.321 638.201 622.61C641.529 623.898 647.005 626.69 650.548 628.837C654.091 630.877 658.922 634.313 661.177 636.353C663.539 638.393 667.189 642.794 669.444 646.015C671.591 649.344 679.966 665.019 688.018 680.909C696.071 696.907 703.801 711.831 707.988 718.487L707.451 713.656C707.129 711.079 705.841 703.563 704.66 697.014C703.372 690.572 700.473 678.762 698.218 670.71C695.856 662.764 692.313 651.921 690.38 646.552C688.34 641.291 684.153 632.81 681.147 627.763C678.141 622.825 673.631 616.061 671.162 612.84C668.693 609.726 659.566 600.278 650.762 591.903C641.959 583.636 633.906 575.369 632.832 573.544C631.759 571.826 630.363 568.927 629.826 567.102C629.182 565.384 629.075 562.807 629.504 561.411C630.148 558.942 630.578 558.835 636.053 559.479V559.479ZM301.932 578.375C302.254 578.375 304.616 581.918 307.3 586.213C309.984 590.508 317.822 601.674 324.801 611.122C331.672 620.57 343.482 636.567 350.998 646.552C358.621 656.645 369.035 670.387 374.189 677.151C379.342 684.023 384.389 690.25 385.355 691.109C386.321 692.075 387.073 693.149 387.073 693.578C387.073 694.008 382.993 691.324 378.161 687.673C373.33 684.023 364.955 676.615 359.587 671.246C354.219 665.985 346.166 656.752 341.765 650.847C337.363 644.942 330.598 634.849 326.733 628.3C322.761 621.858 316.641 610.477 312.883 603.069C309.233 595.768 305.153 587.179 303.757 584.066C302.361 580.952 301.61 578.375 301.932 578.375ZM126.497 582.67L131.543 598.023C134.334 606.398 138.522 617.993 140.991 623.791C143.46 629.589 148.829 641.184 152.801 649.559C156.881 657.933 165.578 674.467 172.02 686.278C178.462 698.088 185.762 711.616 192.849 724.929L187.266 719.561C184.152 716.662 177.281 709.146 171.912 702.812C166.544 696.585 158.169 685.955 153.445 679.191C148.614 672.535 140.669 660.188 135.73 651.921C130.899 643.653 124.349 631.628 121.236 625.079C118.122 618.637 115.438 612.625 115.223 611.658C115.116 610.8 117.478 603.928 120.699 596.413L126.497 582.67ZM184.796 617.027C185.118 617.886 187.802 625.401 190.809 633.668C193.815 641.936 198.324 653.746 201.008 659.973C203.692 666.2 210.456 680.695 216.254 692.183C222.052 703.671 230.104 718.702 234.184 725.466C238.264 732.337 245.458 743.396 250.182 750.053C254.906 756.817 263.066 767.446 268.434 773.673C273.802 780.008 280.566 787.201 288.833 794.502L279.17 789.348C273.802 786.557 266.609 782.584 263.066 780.437C259.523 778.397 249.215 771.526 240.197 765.299C224.199 754.24 223.77 753.81 221.622 748.013C220.441 744.792 215.825 730.727 211.53 716.877C207.128 703.027 201.652 684.882 199.29 676.615C196.928 668.347 192.526 651.813 189.52 639.896C186.514 627.871 184.152 617.564 184.259 616.812C184.259 615.953 184.474 616.06 184.796 617.027ZM556.71 702.275C566.373 702.597 570.668 703.241 576.573 705.389C580.653 706.784 586.021 708.932 588.383 710.22C590.745 711.401 595.577 714.515 599.12 717.199C602.663 719.776 607.494 724.607 609.964 727.721C612.326 730.942 615.654 736.095 617.157 739.209C618.768 742.322 620.7 747.798 621.666 751.556C622.525 755.206 623.277 761.111 623.277 764.654C623.277 768.197 622.525 773.995 621.559 777.538C620.593 781.081 618.553 786.128 616.942 788.704C615.439 791.388 612.218 795.146 609.856 797.079C607.494 799.119 603.522 801.695 600.945 802.769C598.475 803.95 593.966 805.453 591.067 805.99C587.417 806.742 583.874 806.742 580.009 805.99C576.895 805.346 572.6 803.735 570.346 802.232C568.198 800.729 564.977 797.508 563.367 795.039C561.434 792.14 560.253 788.704 560.039 785.161C559.824 782.155 559.931 778.29 561.112 773.244L562.723 777.538C563.474 779.9 565.514 783.229 567.125 784.946C568.735 786.664 572.064 788.919 574.426 789.993C576.788 791.066 580.545 792.033 582.693 792.033C584.947 792.033 588.598 791.281 590.745 790.422C593 789.456 596.436 787.201 598.368 785.269C600.623 783.121 602.448 779.686 603.629 775.928C604.703 771.955 605.025 768.09 604.595 764.118C604.273 760.897 602.663 755.528 601.052 752.307C599.442 749.086 595.362 743.825 592.141 740.605C588.276 736.847 583.552 733.518 578.72 731.264C574.533 729.439 567.984 727.399 564.226 726.754C559.717 726.003 554.67 726.003 549.946 726.647C545.974 727.184 540.283 728.794 537.384 730.297C534.378 731.801 530.191 734.807 528.044 737.061C525.896 739.209 522.783 743.718 521.28 746.939C518.81 752.307 518.596 754.133 518.596 765.728C518.596 777.109 519.025 779.793 521.816 788.275C523.534 793.643 527.507 802.984 530.513 809.211C533.627 815.438 535.881 820.592 535.667 820.807C535.452 820.914 533.197 819.733 530.62 818.122C528.151 816.512 523.856 813.291 521.28 811.036C518.596 808.782 514.516 804.38 512.261 801.373C510.006 798.26 506.678 792.677 504.96 788.812C503.242 784.946 501.095 778.397 500.236 774.103C499.377 769.808 498.733 763.259 498.733 759.608C498.733 755.85 499.377 749.731 500.236 745.865C500.988 742 503.242 735.558 505.282 731.371C507.644 726.432 510.973 721.708 515.267 717.414C518.918 713.87 524.179 709.683 527.185 708.073C530.084 706.462 535.13 704.422 538.458 703.563C542.753 702.382 547.799 701.953 556.71 702.275V702.275Z" fill="white"/>
</g>
<defs>
<clipPath id="clip0_68_15">
<rect width="900" height="900" fill="white"/>
</clipPath>
</defs>
</svg>
